<svg width="16" height="16" xmlns="http://www.w3.org/2000/svg">
    <g fill="none" fill-rule="evenodd">
        <g fill="#000">
            <path d="M8.441 1.104a.985.985 0 00-.882 0L.365 5c-.487.253-.487.747 0 1L7.56 9.896a.985.985 0 00.882 0L15.635 6c.487-.253.487-.747 0-1L8.44 1.104z"/>
            <path d="M14 5.5l.016 4.514c.002.548.447.99.994.99a.99.99 0 00.99-.99V5.5h-2zM3.371 9.047l4.387 2.432a.5.5 0 00.485 0l4.39-2.432a.25.25 0 01.371.218v2.955a.25.25 0 01-.134.222l-4.635 2.436a.5.5 0 01-.466 0l-4.635-2.436A.25.25 0 013 12.22V9.265a.25.25 0 01.371-.218z"/>
        </g>
    </g>
</svg>
